<?xml version="1.0" standalone="no"?>
<!DOCTYPE svg PUBLIC "-//W3C//DTD SVG 20010904//EN"
 "http://www.w3.org/TR/2001/REC-SVG-20010904/DTD/svg10.dtd">
<svg version="1.0" xmlns="http://www.w3.org/2000/svg"
 width="640.000000pt" height="652.000000pt" viewBox="0 0 640.000000 652.000000"
 preserveAspectRatio="xMidYMid meet">

<g transform="translate(0.000000,652.000000) scale(0.100000,-0.100000)"
fill="#000000" stroke="none">
<path d="M855 5841 c-87 -22 -167 -87 -213 -174 l-27 -52 0 -2325 0 -2325 27
-52 c35 -66 85 -116 151 -151 l52 -27 2325 0 2325 0 52 27 c29 16 68 44 88 63
19 20 47 59 63 88 l27 52 0 2325 0 2325 -27 52 c-35 66 -85 116 -151 151 l-52
27 -2305 2 c-1268 0 -2318 -2 -2335 -6z m435 -1447 l0 -556 218 211 217 210
115 0 115 1 -145 -137 c-80 -76 -183 -175 -230 -220 l-85 -82 140 -143 c77
-79 192 -196 255 -260 l115 -118 -120 0 -120 0 -235 250 -235 251 -3 -295 c-1
-162 -1 -430 0 -595 l3 -300 217 210 217 210 112 -3 112 -3 -227 -214 c-125
-118 -225 -217 -224 -222 2 -4 114 -122 251 -262 136 -140 247 -258 247 -261
0 -3 -51 -6 -113 -6 l-114 0 -239 255 -239 254 -3 -254 -2 -255 -80 0 -80 0 0
1445 0 1445 80 0 80 0 0 -556z m1366 -115 c127 -23 236 -101 293 -210 42 -78
59 -142 68 -251 l6 -88 -393 0 -393 0 6 -35 c16 -100 92 -201 183 -246 41 -20
64 -24 139 -24 76 0 99 4 147 27 31 14 76 45 101 67 24 23 47 41 51 41 10 0
116 -83 116 -91 0 -13 -119 -118 -155 -137 -101 -51 -248 -72 -361 -53 -188
33 -332 166 -380 352 -20 74 -22 211 -5 284 61 257 309 413 577 364z m1105 1
c218 -42 359 -226 359 -472 l0 -78 -389 0 -388 0 8 -45 c34 -180 204 -292 391
-255 77 15 119 36 181 90 53 47 50 47 127 -18 34 -29 34 -29 17 -56 -28 -41
-127 -114 -187 -137 -138 -52 -313 -47 -438 11 -75 35 -162 114 -202 186 -97
169 -89 421 19 577 106 155 307 234 502 197z m1191 -4 c187 -40 324 -171 373
-357 19 -69 19 -209 0 -278 -89 -336 -470 -478 -742 -277 -32 23 -64 55 -72
69 -8 15 -18 27 -23 27 -4 0 -8 -142 -8 -315 l0 -315 -80 0 -80 0 0 715 0 715
80 0 80 0 0 -65 c0 -36 3 -65 6 -65 3 0 28 20 56 45 112 101 249 134 410 101z
m-2291 -1230 c216 -46 337 -203 356 -458 l6 -88 -393 0 -393 0 7 -42 c11 -66
64 -156 119 -199 125 -99 319 -90 440 21 30 28 58 50 61 50 8 0 110 -80 114
-89 5 -14 -115 -119 -167 -146 -29 -14 -83 -33 -120 -41 -287 -61 -529 76
-606 341 -21 70 -23 215 -6 290 61 258 318 417 582 361z m769 -388 c80 -201
148 -369 151 -372 3 -4 69 161 147 366 l140 373 86 3 c48 2 86 -1 86 -7 0 -11
-462 -1186 -495 -1258 -58 -127 -136 -183 -265 -191 -41 -2 -94 1 -117 7 -47
13 -49 17 -37 104 l6 45 77 -5 c136 -10 172 25 247 235 l37 103 -197 477
c-108 262 -196 481 -196 485 0 4 41 6 92 5 l92 -3 146 -367z"/>
<path d="M2467 4130 c-111 -28 -198 -117 -222 -227 l-7 -33 303 0 302 0 -6 45
c-12 87 -75 168 -156 202 -43 18 -163 25 -214 13z"/>
<path d="M3558 4126 c-55 -15 -121 -58 -149 -97 -28 -40 -59 -110 -59 -136 l0
-23 301 0 301 0 -7 43 c-10 61 -54 136 -99 169 -75 54 -187 71 -288 44z"/>
<path d="M4744 4131 c-96 -25 -187 -100 -225 -186 -41 -92 -41 -238 0 -330 28
-63 95 -130 160 -162 48 -24 69 -27 146 -28 76 0 98 4 147 27 142 66 220 226
191 393 -30 174 -147 281 -316 290 -39 2 -86 1 -103 -4z"/>
<path d="M2473 2900 c-112 -24 -203 -115 -228 -227 l-7 -33 303 0 302 0 -6 45
c-13 89 -65 157 -149 195 -54 24 -154 33 -215 20z"/>
</g>
</svg>
